<svg id="Warstwa_1" data-name="Warstwa 1" xmlns="http://www.w3.org/2000/svg" viewBox="0 0 200 51.36"><defs><style>.cls-1{fill-rule:evenodd;}</style></defs><title>gordo-logo</title><path class="cls-1" d="M25.64,0A25.68,25.68,0,1,1,0,25.68,25.68,25.68,0,0,1,25.64,0Zm4.11,6.16H21.54v38h8.21v-38Zm64,19.18V42.1a28.71,28.71,0,0,1-4.43,1.11,38.34,38.34,0,0,1-7.19.6,19,19,0,0,1-6.88-1.2A14.3,14.3,0,0,1,70,39.08a16.06,16.06,0,0,1-3.39-5.68,23.11,23.11,0,0,1-1.21-7.76,20.94,20.94,0,0,1,1.34-7.75,16.74,16.74,0,0,1,3.64-5.71,15.37,15.37,0,0,1,5.43-3.55,18.31,18.31,0,0,1,6.63-1.21,25.07,25.07,0,0,1,4.3.33,29.33,29.33,0,0,1,3.25.73,12.42,12.42,0,0,1,2.23.86c.59.3,1,.52,1.23.65l-1.91,5.19a15,15,0,0,0-3.74-1.54,17.26,17.26,0,0,0-4.7-.63q-5.39,0-8.22,3.35T72,25.64a18.57,18.57,0,0,0,.68,5.16,11.24,11.24,0,0,0,2,4A9.14,9.14,0,0,0,78,37.4a10.84,10.84,0,0,0,4.65.93,26.25,26.25,0,0,0,2.86-.13,10.56,10.56,0,0,0,1.91-.33V25.34Zm29-1.08a13,13,0,0,0-2.59-4.35,11.35,11.35,0,0,0-4-2.8,13.13,13.13,0,0,0-5.1-1,12.92,12.92,0,0,0-5.08,1,11.72,11.72,0,0,0-4,2.8,12.72,12.72,0,0,0-2.61,4.35,16.35,16.35,0,0,0-.93,5.66,16.61,16.61,0,0,0,.93,5.69A12.88,12.88,0,0,0,102,40a11.6,11.6,0,0,0,4,2.82,12.72,12.72,0,0,0,5.13,1,12.93,12.93,0,0,0,5.15-1,11.53,11.53,0,0,0,4-2.82,12.66,12.66,0,0,0,2.56-4.38,17.11,17.11,0,0,0,.91-5.69,16.35,16.35,0,0,0-.93-5.66Zm76.31,0a12.84,12.84,0,0,0-2.59-4.35,11.26,11.26,0,0,0-4-2.8,13.71,13.71,0,0,0-10.18,0,11.58,11.58,0,0,0-4,2.8,12.59,12.59,0,0,0-2.62,4.35,16.35,16.35,0,0,0-.93,5.66,16.61,16.61,0,0,0,.93,5.69A13,13,0,0,0,178.28,40a11.6,11.6,0,0,0,4,2.82,12.76,12.76,0,0,0,5.13,1,12.94,12.94,0,0,0,5.16-1,11.58,11.58,0,0,0,4-2.82,12.51,12.51,0,0,0,2.56-4.38,16.85,16.85,0,0,0,.91-5.69,16.35,16.35,0,0,0-.93-5.66ZM169.84,4.05l-6.08,1V17.69a14.72,14.72,0,0,0-2.51-1,11.17,11.17,0,0,0-3.37-.46,12,12,0,0,0-5,1,10.31,10.31,0,0,0-3.67,2.8A12.27,12.27,0,0,0,147,24.36a19.27,19.27,0,0,0-.78,5.66,16.58,16.58,0,0,0,.93,5.72,12,12,0,0,0,2.66,4.32,11.62,11.62,0,0,0,4.2,2.75,15.47,15.47,0,0,0,5.58.95,35.37,35.37,0,0,0,5.75-.45,35.06,35.06,0,0,0,4.55-1V4.05ZM134.75,43.11h-6.08V18a35,35,0,0,1,4.4-1.23,27.74,27.74,0,0,1,5.85-.58c.4,0,.87,0,1.41.08s1.07.12,1.61.2,1.05.18,1.56.3.9.23,1.2.33l-1,5.13a19.92,19.92,0,0,0-2.09-.53,15.72,15.72,0,0,0-3.09-.27,11.76,11.76,0,0,0-2.14.2,12.3,12.3,0,0,0-1.58.35V43.11ZM41.55,11.3H33.34V40.06h8.21V11.3ZM18,10.79H9.75V39.55H18V10.79Zm97.82,25.42a5.92,5.92,0,0,1-9.4,0,10.5,10.5,0,0,1-1.69-6.29,10.28,10.28,0,0,1,1.69-6.21,6,6,0,0,1,9.4,0,10.28,10.28,0,0,1,1.68,6.21,10.5,10.5,0,0,1-1.68,6.29Zm76.31,0a5.92,5.92,0,0,1-9.4,0A10.5,10.5,0,0,1,181,29.92a10.28,10.28,0,0,1,1.68-6.21,6,6,0,0,1,9.4,0,10.28,10.28,0,0,1,1.69,6.21,10.5,10.5,0,0,1-1.69,6.29ZM153.93,23.73a5.43,5.43,0,0,1,4.85-2.26,8.61,8.61,0,0,1,2.85.47,9.39,9.39,0,0,1,2.13,1v15.1a16.52,16.52,0,0,1-1.68.27,19.72,19.72,0,0,1-2.49.13,6.48,6.48,0,0,1-5.28-2.29,9.59,9.59,0,0,1-1.91-6.32,10.83,10.83,0,0,1,1.53-6.14Z"/></svg>